# xmcd
#
# Track frame offsets: 
#        300
#        9821
#        22764
#        31577
#        46170
#        58924
#        72712
#        85554
#        98713
#        110874
#        123716
#        137939
#        148260
#        156689
#        168675
#        179698
#        187793
#        198713
#
# Disc length: 2917 seconds
#
# Revision: 0
# Processed by: cddbd v1.5.2PL0 Copyright (c) Steve Scherf et al.
# Submitted via: ExactAudioCopy v1.0b1
#
DISCID=090b6112
DTITLE=New Rangers - 2012
DYEAR=2013
DGENRE=Country
TTITLE0=Ta Zem Je Tva Zem
TTITLE1=Tricentiva Opera
TTITLE2=Pojd Ven
TTITLE3=Vina Vina
TTITLE4=Nos Pro Trable
TTITLE5=Julianne
TTITLE6=Kvety Dej
TTITLE7=Kingstown Town
TTITLE8=Neplac Mala
TTITLE9=Zvednete Kotvy
TTITLE10=Pole S Bavlnou
TTITLE11=Vim Vim
TTITLE12=Oh Shenandoah
TTITLE13=Orchidej
TTITLE14=Mam Radost
TTITLE15=Jehly Spicky
TTITLE16=Ok, Jak Jsem Rek
TTITLE17=Don Diego
EXTD=
EXTT0=
EXTT1=
EXTT2=
EXTT3=
EXTT4=
EXTT5=
EXTT6=
EXTT7=
EXTT8=
EXTT9=
EXTT10=
EXTT11=
EXTT12=
EXTT13=
EXTT14=
EXTT15=
EXTT16=
EXTT17=
PLAYORDER=
